# xmcd
#
# Track frame offsets:
#	150
#	19313
#	32419
#	51840
#	68795
#	83368
#	102495
#	118397
#	135928
#	153168
#	170321
#	185212
#	203565
#	218756
#	233779
#
# Disc length: 3360 seconds
#
# Revision: 13
# Processed by: cddbd v1.5.2PL0 Copyright (c) Steve Scherf et al.
# Submitted via: audiograbber 1.83.01
#
DISCID=c30d1e0f
DTITLE=Chartbusters - 60413 kar
DYEAR=2009
DGENRE=Karaoke
TTITLE0=Rascal Flatts - Summer Nights
TTITLE1=Rodney Atkins - 15 Minutes
TTITLE2=Brooks and Dunn - Indian Summer
TTITLE3=Whitney Duncan - Skinny Dippin'
TTITLE4=Craig Morgan - Bonfire
TTITLE5=Trent Tomlinson - Henry Cartwright's Prayer And Produce Stand
TTITLE6=Jason Aldean - Big Green Tractor
TTITLE7=Lady Antebellum - I Was Here
TTITLE8=Trace Adkins - All I Ask For Anymore
TTITLE9=George Straight - Living For The Night
TTITLE10=Jake Owen - Eight Second Ride
TTITLE11=Gretchen Wilson - If I Could Do It All Again
TTITLE12=Eric Church - Smoke A Little Smoke
TTITLE13=Trailer Choir - Rockin' The Beer Gut
TTITLE14=Montgomery Gentry - Long Line Of Losers
EXTD=First name first last names last.
EXTT0=
EXTT1=
EXTT2=
EXTT3=
EXTT4=
EXTT5=
EXTT6=
EXTT7=
EXTT8=
EXTT9=
EXTT10=
EXTT11=
EXTT12=
EXTT13=
EXTT14=
PLAYORDER=
